<svg width="32" height="32" viewBox="0 0 32 32" fill="none" xmlns="http://www.w3.org/2000/svg">
<path fill-rule="evenodd" clip-rule="evenodd" d="M16 1C7.71573 1 1 7.71573 1 16C1 24.2843 7.71573 31 16 31C24.2843 31 31 24.2843 31 16C31 7.71573 24.2843 1 16 1ZM17.5635 16.6589V24.8197H14.1869V16.6592H12.5V13.8469H14.1869V12.1585C14.1869 9.86425 15.1395 8.5 17.8457 8.5H20.0988V11.3126H18.6905C17.637 11.3126 17.5673 11.7056 17.5673 12.4391L17.5635 13.8466H20.1147L19.8162 16.6589H17.5635Z" fill="#141024"/>
<path d="M17.5635 24.8197V25.3197H18.0635V24.8197H17.5635ZM17.5635 16.6589V16.1589H17.0635V16.6589H17.5635ZM14.1869 24.8197H13.6869V25.3197H14.1869V24.8197ZM14.1869 16.6592H14.6869V16.1592H14.1869V16.6592ZM12.5 16.6592H12V17.1592H12.5V16.6592ZM12.5 13.8469V13.3469H12V13.8469H12.5ZM14.1869 13.8469V14.3469H14.6869V13.8469H14.1869ZM20.0988 8.5H20.5988V8H20.0988V8.5ZM20.0988 11.3126V11.8126H20.5988V11.3126H20.0988ZM17.5673 12.4391L18.0673 12.4404V12.4391H17.5673ZM17.5635 13.8466L17.0635 13.8453L17.0621 14.3466H17.5635V13.8466ZM20.1147 13.8466L20.612 13.8994L20.6706 13.3466H20.1147V13.8466ZM19.8162 16.6589V17.1589H20.2659L20.3134 16.7117L19.8162 16.6589ZM1.5 16C1.5 7.99187 7.99187 1.5 16 1.5V0.5C7.43959 0.5 0.5 7.43959 0.5 16H1.5ZM16 30.5C7.99187 30.5 1.5 24.0081 1.5 16H0.5C0.5 24.5604 7.43959 31.5 16 31.5V30.5ZM30.5 16C30.5 24.0081 24.0081 30.5 16 30.5V31.5C24.5604 31.5 31.5 24.5604 31.5 16H30.5ZM16 1.5C24.0081 1.5 30.5 7.99187 30.5 16H31.5C31.5 7.43959 24.5604 0.5 16 0.5V1.5ZM18.0635 24.8197V16.6589H17.0635V24.8197H18.0635ZM14.1869 25.3197H17.5635V24.3197H14.1869V25.3197ZM13.6869 16.6592V24.8197H14.6869V16.6592H13.6869ZM12.5 17.1592H14.1869V16.1592H12.5V17.1592ZM12 13.8469V16.6592H13V13.8469H12ZM14.1869 13.3469H12.5V14.3469H14.1869V13.3469ZM13.6869 12.1585V13.8469H14.6869V12.1585H13.6869ZM17.8457 8C16.415 8 15.3395 8.36138 14.6332 9.13075C13.9346 9.89159 13.6869 10.9554 13.6869 12.1585H14.6869C14.6869 11.0673 14.9155 10.3019 15.3698 9.80705C15.8163 9.32075 16.5702 9 17.8457 9V8ZM20.0988 8H17.8457V9H20.0988V8ZM20.5988 11.3126V8.5H19.5988V11.3126H20.5988ZM18.6905 11.8126H20.0988V10.8126H18.6905V11.8126ZM18.0673 12.4391C18.0673 12.2568 18.0723 12.1307 18.088 12.0347C18.1032 11.9426 18.1229 11.9149 18.1271 11.9095C18.1292 11.9068 18.1332 11.9022 18.1437 11.8954C18.1553 11.888 18.1782 11.8756 18.2196 11.8627C18.3069 11.8354 18.4527 11.8126 18.6905 11.8126V10.8126C18.1381 10.8126 17.6423 10.9077 17.3405 11.292C17.1957 11.4766 17.1321 11.6847 17.1013 11.8726C17.071 12.0565 17.0673 12.2546 17.0673 12.4391H18.0673ZM18.0635 13.848L18.0673 12.4404L17.0673 12.4377L17.0635 13.8453L18.0635 13.848ZM20.1147 13.3466H17.5635V14.3466H20.1147V13.3466ZM20.3134 16.7117L20.612 13.8994L19.6175 13.7938L19.319 16.6061L20.3134 16.7117ZM17.5635 17.1589H19.8162V16.1589H17.5635V17.1589Z" fill="black"/>
<path d="M17.5635 24.8197V25.3197H18.0635V24.8197H17.5635ZM17.5635 16.6589V16.1589H17.0635V16.6589H17.5635ZM14.1869 24.8197H13.6869V25.3197H14.1869V24.8197ZM14.1869 16.6592H14.6869V16.1592H14.1869V16.6592ZM12.5 16.6592H12V17.1592H12.5V16.6592ZM12.5 13.8469V13.3469H12V13.8469H12.5ZM14.1869 13.8469V14.3469H14.6869V13.8469H14.1869ZM20.0988 8.5H20.5988V8H20.0988V8.5ZM20.0988 11.3126V11.8126H20.5988V11.3126H20.0988ZM17.5673 12.4391L18.0673 12.4404V12.4391H17.5673ZM17.5635 13.8466L17.0635 13.8453L17.0621 14.3466H17.5635V13.8466ZM20.1147 13.8466L20.612 13.8994L20.6706 13.3466H20.1147V13.8466ZM19.8162 16.6589V17.1589H20.2659L20.3134 16.7117L19.8162 16.6589ZM1.5 16C1.5 7.99187 7.99187 1.5 16 1.5V0.5C7.43959 0.5 0.5 7.43959 0.5 16H1.5ZM16 30.5C7.99187 30.5 1.5 24.0081 1.5 16H0.5C0.5 24.5604 7.43959 31.5 16 31.5V30.5ZM30.5 16C30.5 24.0081 24.0081 30.5 16 30.5V31.5C24.5604 31.5 31.5 24.5604 31.5 16H30.5ZM16 1.5C24.0081 1.5 30.5 7.99187 30.5 16H31.5C31.5 7.43959 24.5604 0.5 16 0.5V1.5ZM18.0635 24.8197V16.6589H17.0635V24.8197H18.0635ZM14.1869 25.3197H17.5635V24.3197H14.1869V25.3197ZM13.6869 16.6592V24.8197H14.6869V16.6592H13.6869ZM12.5 17.1592H14.1869V16.1592H12.5V17.1592ZM12 13.8469V16.6592H13V13.8469H12ZM14.1869 13.3469H12.5V14.3469H14.1869V13.3469ZM13.6869 12.1585V13.8469H14.6869V12.1585H13.6869ZM17.8457 8C16.415 8 15.3395 8.36138 14.6332 9.13075C13.9346 9.89159 13.6869 10.9554 13.6869 12.1585H14.6869C14.6869 11.0673 14.9155 10.3019 15.3698 9.80705C15.8163 9.32075 16.5702 9 17.8457 9V8ZM20.0988 8H17.8457V9H20.0988V8ZM20.5988 11.3126V8.5H19.5988V11.3126H20.5988ZM18.6905 11.8126H20.0988V10.8126H18.6905V11.8126ZM18.0673 12.4391C18.0673 12.2568 18.0723 12.1307 18.088 12.0347C18.1032 11.9426 18.1229 11.9149 18.1271 11.9095C18.1292 11.9068 18.1332 11.9022 18.1437 11.8954C18.1553 11.888 18.1782 11.8756 18.2196 11.8627C18.3069 11.8354 18.4527 11.8126 18.6905 11.8126V10.8126C18.1381 10.8126 17.6423 10.9077 17.3405 11.292C17.1957 11.4766 17.1321 11.6847 17.1013 11.8726C17.071 12.0565 17.0673 12.2546 17.0673 12.4391H18.0673ZM18.0635 13.848L18.0673 12.4404L17.0673 12.4377L17.0635 13.8453L18.0635 13.848ZM20.1147 13.3466H17.5635V14.3466H20.1147V13.3466ZM20.3134 16.7117L20.612 13.8994L19.6175 13.7938L19.319 16.6061L20.3134 16.7117ZM17.5635 17.1589H19.8162V16.1589H17.5635V17.1589Z" fill="black" fill-opacity="0.2"/>
</svg>
