<?xml version="1.0" encoding="utf-8"?><svg viewBox="0 0 502.66 502.66" xmlns="http://www.w3.org/2000/svg" xmlns:xlink="http://www.w3.org/1999/xlink"><style>:root>svg{display:none}:root>svg:target{display:block}</style><svg viewBox="0 0 32 32" id="fb-icon" xmlns="http://www.w3.org/2000/svg"><path fill-rule="evenodd" clip-rule="evenodd" d="M16 1C7.716 1 1 7.716 1 16c0 8.284 6.716 15 15 15 8.284 0 15-6.716 15-15 0-8.284-6.716-15-15-15zm1.564 15.659v8.16h-3.377v-8.16H12.5v-2.812h1.687v-1.688c0-2.295.953-3.659 3.659-3.659h2.253v2.813H18.69c-1.053 0-1.123.393-1.123 1.126l-.003 1.408h2.55l-.298 2.812h-2.252z"/><path d="M17.564 24.82v.5h.5v-.5h-.5zm0-8.161v-.5h-.5v.5h.5zm-3.377 8.16h-.5v.5h.5v-.5zm0-8.16h.5v-.5h-.5v.5zm-1.687 0H12v.5h.5v-.5zm0-2.812v-.5H12v.5h.5zm1.687 0v.5h.5v-.5h-.5zM20.099 8.5h.5V8h-.5v.5zm0 2.813v.5h.5v-.5h-.5zm-2.532 1.126l.5.001h-.5zm-.003 1.408l-.5-.002-.002.502h.502v-.5zm2.55 0l.498.052.059-.552h-.556v.5zm-.298 2.812v.5h.45l.047-.447-.497-.053zM1.5 16C1.5 7.992 7.992 1.5 16 1.5v-1C7.44.5.5 7.44.5 16h1zM16 30.5C7.992 30.5 1.5 24.008 1.5 16h-1c0 8.56 6.94 15.5 15.5 15.5v-1zM30.5 16c0 8.008-6.492 14.5-14.5 14.5v1c8.56 0 15.5-6.94 15.5-15.5h-1zM16 1.5c8.008 0 14.5 6.492 14.5 14.5h1C31.5 7.44 24.56.5 16 .5v1zm2.064 23.32v-8.161h-1v8.16h1zm-3.877.5h3.377v-1h-3.377v1zm-.5-8.66v8.16h1v-8.16h-1zm-1.187.5h1.687v-1H12.5v1zm-.5-3.313v2.812h1v-2.812h-1zm2.187-.5H12.5v1h1.687v-1zm-.5-1.188v1.688h1v-1.688h-1zM17.846 8c-1.431 0-2.507.361-3.213 1.13-.698.762-.946 1.825-.946 3.028h1c0-1.09.229-1.856.683-2.35.446-.487 1.2-.808 2.476-.808V8zm2.253 0h-2.253v1h2.253V8zm.5 3.313V8.5h-1v2.813h1zm-1.909.5h1.41v-1h-1.41v1zm-.623.626c0-.182.005-.308.021-.404.015-.092.035-.12.04-.126a.062.062 0 01.016-.014.315.315 0 01.076-.032 1.65 1.65 0 01.47-.05v-1c-.552 0-1.048.095-1.35.479a1.25 1.25 0 00-.239.58c-.03.184-.034.383-.034.567h1zm-.003 1.409l.003-1.408-1-.002-.003 1.407 1 .003zm2.05-.501h-2.55v1h2.55v-1zm.2 3.365l.298-2.813-.994-.105-.299 2.812.994.106zm-2.75.447h2.252v-1h-2.252v1z"/><path d="M17.564 24.82v.5h.5v-.5h-.5zm0-8.161v-.5h-.5v.5h.5zm-3.377 8.16h-.5v.5h.5v-.5zm0-8.16h.5v-.5h-.5v.5zm-1.687 0H12v.5h.5v-.5zm0-2.812v-.5H12v.5h.5zm1.687 0v.5h.5v-.5h-.5zM20.099 8.5h.5V8h-.5v.5zm0 2.813v.5h.5v-.5h-.5zm-2.532 1.126l.5.001h-.5zm-.003 1.408l-.5-.002-.002.502h.502v-.5zm2.55 0l.498.052.059-.552h-.556v.5zm-.298 2.812v.5h.45l.047-.447-.497-.053zM1.5 16C1.5 7.992 7.992 1.5 16 1.5v-1C7.44.5.5 7.44.5 16h1zM16 30.5C7.992 30.5 1.5 24.008 1.5 16h-1c0 8.56 6.94 15.5 15.5 15.5v-1zM30.5 16c0 8.008-6.492 14.5-14.5 14.5v1c8.56 0 15.5-6.94 15.5-15.5h-1zM16 1.5c8.008 0 14.5 6.492 14.5 14.5h1C31.5 7.44 24.56.5 16 .5v1zm2.064 23.32v-8.161h-1v8.16h1zm-3.877.5h3.377v-1h-3.377v1zm-.5-8.66v8.16h1v-8.16h-1zm-1.187.5h1.687v-1H12.5v1zm-.5-3.313v2.812h1v-2.812h-1zm2.187-.5H12.5v1h1.687v-1zm-.5-1.188v1.688h1v-1.688h-1zM17.846 8c-1.431 0-2.507.361-3.213 1.13-.698.762-.946 1.825-.946 3.028h1c0-1.09.229-1.856.683-2.35.446-.487 1.2-.808 2.476-.808V8zm2.253 0h-2.253v1h2.253V8zm.5 3.313V8.5h-1v2.813h1zm-1.909.5h1.41v-1h-1.41v1zm-.623.626c0-.182.005-.308.021-.404.015-.092.035-.12.04-.126a.062.062 0 01.016-.014.315.315 0 01.076-.032 1.65 1.65 0 01.47-.05v-1c-.552 0-1.048.095-1.35.479a1.25 1.25 0 00-.239.58c-.03.184-.034.383-.034.567h1zm-.003 1.409l.003-1.408-1-.002-.003 1.407 1 .003zm2.05-.501h-2.55v1h2.55v-1zm.2 3.365l.298-2.813-.994-.105-.299 2.812.994.106zm-2.75.447h2.252v-1h-2.252v1z" fill-opacity=".2"/></svg><svg viewBox="0 0 502.664 502.664" id="icon" xmlns="http://www.w3.org/2000/svg"><path d="M153.821 358.226L0 274.337v-46.463l153.821-83.414v54.574L46.636 250.523l107.185 53.431v54.272zm26.273 29.358L282.103 115.08h32.227L212.084 387.584h-31.99zm168.749-29.358v-54.272l107.164-52.999-107.164-52.59v-53.927l153.821 83.522v46.183l-153.821 84.083z"/></svg><svg viewBox="0 0 3 13" id="icon-tooltip" xmlns="http://www.w3.org/2000/svg"><path d="M1.549 1.87c-.594 0-.89-.28-.89-.84 0-.55.296-.824.89-.824.593 0 .89.275.89.824 0 .56-.297.84-.89.84zm0 10.214c-.448 0-.672-.246-.672-.74v-6.87c0-.482.224-.723.672-.723.459 0 .689.24.689.722v6.872c0 .492-.23.739-.69.739z"/></svg><svg viewBox="0 0 30 30" id="instagram-icon" xmlns="http://www.w3.org/2000/svg"><path fill-rule="evenodd" clip-rule="evenodd" d="M15 0C6.716 0 0 6.716 0 15c0 8.284 6.716 15 15 15 8.284 0 15-6.716 15-15 0-8.284-6.716-15-15-15zm-3.298 7.048C12.555 7.01 12.828 7 15.001 7h-.003c2.174 0 2.445.01 3.299.048.851.04 1.433.174 1.943.372.527.204.972.478 1.417.923.445.444.718.89.923 1.417.197.508.332 1.09.372 1.941.038.854.048 1.126.048 3.3 0 2.172-.01 2.444-.048 3.297-.04.852-.175 1.433-.372 1.942a3.927 3.927 0 01-.923 1.417c-.445.445-.89.719-1.416.923-.51.198-1.091.333-1.943.372-.854.039-1.125.048-3.298.048s-2.445-.01-3.299-.048c-.851-.04-1.433-.174-1.942-.372a3.918 3.918 0 01-1.416-.923 3.92 3.92 0 01-.923-1.417c-.198-.509-.332-1.09-.372-1.942C7.01 17.445 7 17.173 7 15s.01-2.445.048-3.299c.038-.851.173-1.433.372-1.941a3.92 3.92 0 01.923-1.417A3.918 3.918 0 019.76 7.42c.509-.198 1.09-.333 1.942-.372z"/><path fill-rule="evenodd" clip-rule="evenodd" d="M14.283 8.442h.718c2.136 0 2.389.007 3.232.046.78.035 1.204.166 1.486.275.373.145.64.319.92.599.28.28.453.546.598.92.11.281.24.705.275 1.485.039.843.047 1.096.047 3.231s-.008 2.389-.047 3.232c-.035.78-.166 1.203-.275 1.485a2.47 2.47 0 01-.599.919c-.28.28-.546.453-.92.598-.28.11-.704.24-1.485.276-.843.038-1.096.047-3.232.047s-2.39-.009-3.233-.047c-.78-.036-1.203-.166-1.485-.276a2.478 2.478 0 01-.92-.598 2.48 2.48 0 01-.6-.92c-.109-.281-.24-.705-.275-1.485-.038-.843-.046-1.096-.046-3.233 0-2.136.008-2.388.046-3.231.036-.78.166-1.204.276-1.486.145-.373.319-.64.599-.92.28-.28.546-.453.92-.598.282-.11.705-.24 1.485-.276.738-.034 1.024-.044 2.515-.045v.002zm4.988 1.328a.96.96 0 100 1.92.96.96 0 000-1.92zM10.893 15a4.109 4.109 0 118.217 0 4.109 4.109 0 01-8.217 0z"/><path fill-rule="evenodd" clip-rule="evenodd" d="M15 12.334a2.667 2.667 0 110 5.333 2.667 2.667 0 010-5.334z"/></svg></svg>